<?xml version="1.0" standalone="no"?><!DOCTYPE svg PUBLIC "-//W3C//DTD SVG 1.1//EN" "http://www.w3.org/Graphics/SVG/1.1/DTD/svg11.dtd"><svg t="1545290742664" class="icon" style="" viewBox="0 0 1149 1024" version="1.1" xmlns="http://www.w3.org/2000/svg" p-id="982" xmlns:xlink="http://www.w3.org/1999/xlink" width="46" height="46"><defs><style type="text/css"></style></defs><path d="M567.744315 1024c-209.456984 0-379.962695-167.715813-379.962695-373.84638s170.505711-373.739076 379.962695-373.739075 379.962695 167.715813 379.962695 373.739075-170.505711 373.84638-379.962695 373.84638z m0-697.474589c-182.416431 0-330.281044 145.396626-330.281043 324.057425S385.649796 974.318349 567.744315 974.318349s330.281044-145.396626 330.281044-324.164729-148.186524-324.057424-330.281044-324.057424z" fill="" p-id="983"></path><path d="M951.784554 994.49146l-57.836739-48.823222C1005.972964 812.826155 1040.846694 673.545845 996.101016 531.797548a470.956303 470.956303 0 0 0-100.114429-174.797862l53.651891-53.651892c3.219113 3.433721 312.57592 323.198994 2.146076 691.143666zM186.386671 994.49146c-310.429844-367.944671-1.180342-687.709944 2.038772-690.821754l53.651891 53.651891-26.933249-26.718642 26.933249 26.611338c-10.730378 10.730378-263.108876 274.483077 2.038772 588.775857zM570.534214 860.254427c-110.952111 0-201.301897-86.916064-201.301897-193.683328a193.146809 193.146809 0 0 1 123.184743-178.553494 205.808656 205.808656 0 0 1 78.117154-15.129834c111.059415 0 201.4092 86.916064 201.4092 193.146809s-90.349785 194.219847-201.4092 194.219847z m0-356.355863a174.368647 174.368647 0 0 0-66.206434 12.876454 162.457927 162.457927 0 0 0-103.870062 150.225296c0 89.705962 76.400293 162.672535 170.291103 162.672535S740.396102 756.277062 740.396102 666.571099 664.425024 504.32778 570.534214 504.32778z" fill="" p-id="984"></path><path d="M636.52604 502.610919h-31.118097v-65.2407H532.226763v55.690663h-31.010793v-86.701456h135.31007v96.251493zM363.867128 539.856062l18.488442-24.894478 385.896594 286.47964-18.488442 24.894478z" fill="" p-id="985"></path><path d="M367.279388 799.874589l385.853673-286.554752 18.488442 24.894477-385.842943 286.565483zM0 9.979252A276.092633 276.092633 0 0 1 43.67264 6.867442a82.516609 82.516609 0 0 1 44.209158 8.476999 32.191135 32.191135 0 0 1 18.027036 29.293933 33.907995 33.907995 0 0 1-24.67987 32.191135 37.341716 37.341716 0 0 1 29.723147 36.805197 39.809703 39.809703 0 0 1-15.559048 32.191135c-10.730378 8.584303-29.079325 13.520277-58.802473 13.520277A249.159384 249.159384 0 0 1 0 156.878131z m33.47878 57.30022h10.730379c17.705124 0 27.255161-7.403961 27.25516-18.456251s-8.262391-17.275909-23.499528-17.275909A96.573405 96.573405 0 0 0 33.47878 32.191135z m0 66.313738a110.952111 110.952111 0 0 0 13.091062 0c15.344441 0 28.864718-5.794404 28.864717-21.460757s-13.520277-21.460757-30.36697-21.460756H33.47878zM132.949387 84.769988c0-15.988264 0-26.396731-0.85843-35.732159H160.955674l1.180342 19.958503h0.85843a32.191135 32.191135 0 0 1 29.293933-22.42649 35.302945 35.302945 0 0 1 7.08205 0v32.191135a48.608614 48.608614 0 0 0-9.120822-0.858431 21.460757 21.460757 0 0 0-23.070313 17.061302 42.063083 42.063083 0 0 0-0.643823 7.618568v55.046841h-33.586084zM276.521848 157.629257l-2.038771-10.730378h-0.643823a38.843969 38.843969 0 0 1-31.010793 13.305669 33.264173 33.264173 0 0 1-35.088337-33.264173c0-28.220895 25.323693-41.741172 63.631143-41.526564V83.696951c0-5.794404-3.11181-14.056796-19.743896-14.056796a61.485068 61.485068 0 0 0-29.937756 8.262391l-6.223619-21.460756A89.92057 89.92057 0 0 1 257.529079 46.569842c36.161375 0 47.750183 21.460757 47.750183 46.891753v37.663628a174.583255 174.583255 0 0 0 1.502253 26.504034z m-3.970239-51.291208c-17.812428 0-31.547312 3.97024-31.547313 17.061301a12.125327 12.125327 0 0 0 13.305669 12.876454 18.563554 18.563554 0 0 0 17.597821-12.447239 24.572566 24.572566 0 0 0 0.643823-5.794404zM365.691292 94.74924c2.467987-4.399455 5.150582-8.906214 7.833176-13.091061l21.460757-32.191135h40.56083l-38.84397 43.994551 44.423766 64.38227h-40.56083l-26.182123-44.638374-8.691606 10.730378v34.015299h-33.693388V0h33.693388zM475.141151 114.063921c1.073038 13.949492 14.915226 20.602326 30.581578 20.602327a95.714974 95.714974 0 0 0 30.045059-4.399456l4.399455 22.855706a105.694226 105.694226 0 0 1-39.273185 6.652835c-36.805198 0-57.944043-21.460757-57.944042-55.261448 0-27.469768 17.061301-57.944043 54.832233-57.944043 35.088337 0 48.394006 27.362465 48.394006 54.18841a69.532851 69.532851 0 0 1-1.180342 13.305669zM515.058158 90.993608a19.636592 19.636592 0 0 0-19.314681-21.997276 22.104579 22.104579 0 0 0-20.816934 21.997276zM611.631562 0h33.264173v157.629257H611.631562zM707.024625 18.885466a16.846694 16.846694 0 0 1-18.134339 16.846694 16.524783 16.524783 0 0 1-17.59782-16.846694A16.524783 16.524783 0 0 1 689.104894 1.824164a16.846694 16.846694 0 0 1 17.919731 17.061302z m-34.873729 138.743791V49.037829h33.800692v108.591428zM836.969506 49.037829c0 6.867442-0.85843 15.988264-0.85843 32.191135v60.626637c0 20.816934-4.292151 37.878235-16.417479 48.823221A67.172168 67.172168 0 0 1 775.162528 203.877187a84.340773 84.340773 0 0 1-39.058577-8.476998l6.652834-25.538301a65.777219 65.777219 0 0 0 31.547312 8.262392 25.860212 25.860212 0 0 0 28.113591-28.65011v-7.08205A34.551818 34.551818 0 0 1 772.587237 156.663523c-26.825946 0-45.926019-21.460757-45.926019-53.008069 0-34.873729 22.641098-57.085612 49.252436-57.085612a32.191135 32.191135 0 0 1 29.723148 15.344441l1.073038-12.876454z m-34.981033 44.209158a27.040553 27.040553 0 0 0-0.643822-6.223619A18.563554 18.563554 0 0 0 783.317615 72.108142c-12.232631 0-22.211883 10.730378-22.211883 30.90349 0 16.202871 7.94048 28.864718 22.211883 28.864717A18.348947 18.348947 0 0 0 800.915435 118.034161a28.65011 28.65011 0 0 0 1.073038-8.79891zM862.829718 0h33.693388v61.914283a42.063083 42.063083 0 0 1 13.412973-10.730379 37.341716 37.341716 0 0 1 17.490516-4.292151c21.460757 0 37.985539 14.915226 37.98554 47.535576v63.523839h-33.371477v-60.090118c0-14.164099-4.82867-23.928744-17.490517-23.928744A17.919732 17.919732 0 0 0 897.703448 85.843026a20.280415 20.280415 0 0 0-1.180342 7.618569v64.38227h-33.693388zM1029.257885 18.027036v31.010793h24.250655v24.894477h-24.250655v39.273185c0 13.091062 3.11181 19.100073 13.305669 19.100073a46.569842 46.569842 0 0 0 9.979252-0.965734v25.538301a64.38227 64.38227 0 0 1-21.460756 2.897202 34.766426 34.766426 0 0 1-25.538301-9.550037 44.852981 44.852981 0 0 1-9.335429-32.191135V73.932306h-14.48601V49.037829h14.48601V25.5383zM1073.037829 128.013413a64.38227 64.38227 0 0 0 29.079325 8.262391c10.193859 0 14.486011-3.541025 14.486011-9.120821s-3.326417-8.155087-15.988264-12.447239c-22.426491-7.511265-31.118097-19.743896-30.903489-32.191135 0-20.173111 17.383213-35.517552 44.209158-35.517552a72.537357 72.537357 0 0 1 30.581578 6.223619l-5.901708 23.284921a55.154144 55.154144 0 0 0-23.606832-6.116315c-8.155087 0-12.876454 3.326417-12.876454 8.79891s4.292151 7.833176 17.59782 12.447239c20.602326 7.08205 29.293933 17.490517 29.508541 33.47878 0 20.280415-15.988264 35.088337-47.106361 35.088337a76.936812 76.936812 0 0 1-34.981033-7.511265z" fill="" p-id="986"></path></svg>