<?xml version="1.0" standalone="no"?><!DOCTYPE svg PUBLIC "-//W3C//DTD SVG 1.1//EN" "http://www.w3.org/Graphics/SVG/1.1/DTD/svg11.dtd"><svg t="1545291024817" class="icon" style="" viewBox="0 0 1248 1024" version="1.1" xmlns="http://www.w3.org/2000/svg" p-id="4043" xmlns:xlink="http://www.w3.org/1999/xlink" width="46" height="46"><defs><style type="text/css"></style></defs><path d="M186.463672 658.302866l549.952749-191.997062 6.399902 18.331758-549.952749 191.997062-6.399902-18.331758Z" p-id="4044"></path><path d="M206.314631 714.445502l549.952749-191.997062 6.399902 18.331758-549.952749 191.997062-6.399902-18.331758Z" p-id="4045"></path><path d="M230.251546 787.132156l384.966925-134.397943 6.399902 18.331758-384.966925 134.397943-6.399902-18.331758Z" p-id="4046"></path><path d="M256.035812 861.237819l-6.396019-18.3337 385.007701-134.316391 6.396019 18.3337-385.007701 134.316391Z" p-id="4047"></path><path d="M874.487707 488.085859l-7.766871-23.300614 69.901843-23.300614 34.950921 97.085893-122.328225 42.717793 7.766871 21.358896 122.328225-42.717793 19.417179 56.309818 64.076689-21.358896-19.417179-56.309818 69.901843-25.242332-7.766871-21.358896-69.901843 25.242332-34.950921-97.085893 69.901843-25.242332-7.766871-23.300614-69.901843 25.242332-5.825154-15.533743-64.076689 21.358896 5.825154 15.533743-69.901843 23.300614-5.825154-15.533743-54.3681 19.417179 42.717793 120.386507C876.429425 552.162548 888.079732 524.978498 874.487707 488.085859z" p-id="4048"></path><path d="M1247.297536 1002.641092c0 0-143.687122-3.883436-275.723936-5.825154-60.193254-1.941718-120.386507-1.941718-178.638043-1.941718-27.18405 0-58.251536 0-85.435586 0-27.18405 0-56.309818 0-83.493868 0-27.18405 0-56.309818 0-83.493868 0-27.18405 0-56.309818 0-85.435586 0-48.542946 0-99.027611 1.941718-149.512275 1.941718l866.006165-302.907986c21.358896-7.766871 38.834357-23.300614 50.484664-44.659511 9.708589-21.358896 11.650307-44.659511 3.883436-66.018407L1043.417161 58.966212c-15.533743-44.659511-66.018407-69.901843-110.677918-54.3681L58.966206 311.389534c-44.659511 15.533743-69.901843 66.018407-54.3681 110.677918l182.521479 524.263822c7.766871 21.358896 23.300614 38.834357 44.659511 50.484664 1.941718 1.941718 3.883436 1.941718 5.825154 1.941718C119.15946 1000.699374 2.656388 1002.641092 2.656388 1002.641092s-7.766871 3.883436 64.076689 9.708589c40.776075 1.941718 108.7362 5.825154 201.938657 7.766871 52.426382 0 102.911047 1.941718 165.046018 1.941718 62.134972 0 126.211661 0 192.230068 1.941718 66.018407 0 130.095097 0 192.230068-1.941718 64.076689 0 112.619636-1.941718 165.046018-1.941718 93.202457-1.941718 161.162582-3.883436 201.938657-7.766871C1257.006125 1008.466245 1247.297536 1002.641092 1247.297536 1002.641092zM68.674795 338.573584l873.773037-304.849704c5.825154-1.941718 13.592025-3.883436 19.417179-3.883436 23.300614 0 46.601229 15.533743 54.3681 38.834357L1031.766854 111.392594 49.257617 455.076655l-15.533743-42.717793C22.073567 381.291377 39.549027 348.282173 68.674795 338.573584zM216.245353 936.622684 90.033692 573.521445l982.509237-343.684061 126.211661 363.10124c5.825154 15.533743 3.883436 31.067486-1.941718 44.659511s-19.417179 25.242332-33.009204 29.125768L290.030631 971.573606c-15.533743 5.825154-31.067486 3.883436-44.659511-1.941718S222.070506 952.156427 216.245353 936.622684z" p-id="4049"></path></svg>