<?xml version="1.0" standalone="no"?><!DOCTYPE svg PUBLIC "-//W3C//DTD SVG 1.1//EN" "http://www.w3.org/Graphics/SVG/1.1/DTD/svg11.dtd"><svg t="1556870270989" class="icon" style="" viewBox="0 0 1024 1024" version="1.1" xmlns="http://www.w3.org/2000/svg" p-id="10386" xmlns:xlink="http://www.w3.org/1999/xlink" width="200" height="200"><defs><style type="text/css"></style></defs><path d="M860.314499 63.405075l-1.282203 124.532271-43.591821 40.687678-58.97416-1.234107-41.028439-40.687678 1.283226-122.06508c-57.69298 25.894763-98.721419 99.871615-98.721419 165.220972 0 65.349357 41.027415 122.064057 98.721419 147.957797l0 446.340581c0 38.222533 32.050973 69.048609 71.795163 69.048609 39.745213 0 71.797209-30.824029 71.797209-69.048609L860.313475 376.583844c57.69298-25.892717 98.721419-82.610486 98.721419-147.957797S919.291728 89.298815 860.314499 63.405075z" p-id="10387" fill="#e6e6e6"></path><path d="M226.060107 400.88225l51.482535-141.962246c3.50687-9.621125 14.57802-17.485233 24.680099-17.485233l252.839519 0c-0.623193-6.949272-0.959861-13.980409-0.959861-21.091364 0-31.849382 6.401804-62.201667 17.974373-89.851401-15.628956-0.50142-32.277124-0.786922-49.974182-0.786922-155.75846 0-231.176127 21.903869-231.176127 21.903869-29.077246 8.441253-61.732993 38.808888-72.585155 67.496254l-43.691081 115.436102-60.282968 0c-27.66099 0-50.366108 23.059182-50.366108 51.221592 0 28.167526 22.705118 51.207265 50.366108 51.207265l21.508873 0-15.46932 40.969087c-10.881838 28.667923-19.757996 77.282131-19.757996 108.000759l0 242.098897c0 35.862789 28.859281 65.168232 64.120366 65.168232 35.272341 0 64.12446-29.305443 64.12446-65.168232l0-37.240159 432.537204 0L661.430846 418.349063 238.062466 418.349063C227.996203 418.349063 222.628962 410.477792 226.060107 400.88225zM274.744923 581.284993c0 28.269857-22.589484 51.219545-50.401923 51.219545-27.847232 0-50.404993-22.949688-50.404993-51.219545 0-28.264741 22.557762-51.214429 50.404993-51.214429C252.155439 530.070564 274.744923 553.025369 274.744923 581.284993z" p-id="10388" fill="#e6e6e6"></path></svg>