<?xml version="1.0" standalone="no"?><!DOCTYPE svg PUBLIC "-//W3C//DTD SVG 1.1//EN" "http://www.w3.org/Graphics/SVG/1.1/DTD/svg11.dtd"><svg t="1552644907470" class="icon" style="" viewBox="0 0 1024 1024" version="1.1" xmlns="http://www.w3.org/2000/svg" p-id="2495" xmlns:xlink="http://www.w3.org/1999/xlink" width="46" height="46"><defs><style type="text/css"></style></defs><path d="M67.110614 176.604697C48.01107 118.706078 79.610316 56.007574 137.508934 36.908029s120.597123 12.499702 139.696668 70.398321L494.600415 765.990635c-20.299516-5.299874-41.799003-6.29985-63.29849-2.399942L220.806947 125.905906c-8.899788-26.799361-37.899096-41.49901-64.698456-32.599222-26.799361 8.899788-41.49901 37.899096-32.599223 64.698456 5.099878 15.599628-3.299921 32.399227-18.899549 37.499106-15.599628 5.099878-32.299229-3.299921-37.499105-18.899549zM923.490183 693.392367L567.398678 810.889564c12.599699 14.299659 22.699458 31.399251 28.999308 50.698791l0.599986 2.09995 345.091767-113.897283c15.599628-5.099878 23.999427-21.899478 18.899549-37.499105-5.199876-15.599628-21.999475-24.099425-37.499105-18.89955zM568.198659 870.788135c-20.199518-61.098542-86.097946-94.397748-147.296486-74.19823-61.098542 20.199518-94.397748 86.097946-74.198229 147.296486 20.199518 61.19854 86.097946 94.397748 147.296485 74.19823 61.098542-20.199518 94.397748-86.097946 74.19823-147.296486z m-92.497793 91.897808c-30.59927 10.099759-63.498485-6.499845-73.598244-37.099115-10.099759-30.59927 6.499845-63.498485 37.099115-73.598244 30.59927-10.099759 63.498485 6.499845 73.598244 37.099115 10.099759 30.59927-6.499845 63.498485-37.099115 73.598244z" fill="#1296db" p-id="2496"></path><path d="M954.389446 612.994286L833.49233 246.503029c-2.599938-7.799814-10.999738-11.999714-18.699554-9.399776L434.201856 362.600259c-7.799814 2.599938-11.999714 10.999738-9.399776 18.699554l120.897116 366.391259c2.599938 7.799814 10.999738 11.999714 18.699554 9.399776l380.490922-125.497006c7.799814-2.49994 11.999714-10.89974 9.499774-18.599556zM761.494048 498.79701l-55.998664-30.799265 48.098852 145.896519-46.0989 15.199637-48.19885-145.996516-26.699363 58.098613-40.799027-18.799551L653.496624 387.999653l129.596908 71.298299-21.599484 39.499058z" fill="#1296db" p-id="2497"></path><path d="M670.096228 240.803165L592.798072 6.508755c-1.599962-4.999881-6.999833-7.699816-11.999713-5.999857l-66.298419 21.899477-0.299992 0.599986-0.599986-0.299993-34.999165 11.499726 28.799313 87.297917-39.39906 12.99969-28.799313-87.297917-34.999165 11.499725-0.299993 0.599986-0.599986-0.299993-65.79843 21.699483c-4.999881 1.599962-7.699816 6.999833-5.999857 11.999713L408.802462 327.001109c1.599962 4.999881 6.999833 7.699816 11.999714 5.999856L663.996374 252.802879c4.999881-1.699959 7.699816-6.999833 6.099854-11.999714z" fill="#1296db" p-id="2498"></path></svg>