<?xml version="1.0" standalone="no"?><!DOCTYPE svg PUBLIC "-//W3C//DTD SVG 1.1//EN" "http://www.w3.org/Graphics/SVG/1.1/DTD/svg11.dtd"><svg t="1552963550070" class="icon" style="" viewBox="0 0 1036 1024" version="1.1" xmlns="http://www.w3.org/2000/svg" p-id="1952" xmlns:xlink="http://www.w3.org/1999/xlink" width="46" height="46"><defs><style type="text/css"></style></defs><path d="M6.25 894.195833l15.470833-222.4 2.479167-36.141666 0.2375-2.241667 0.120833-0.591667c1.8875-20.433333 6.966667-38.3875 14.7625-53.975a135.579167 135.579167 0 0 1 31.179167-40.391666l1.5375-1.304167 338.616667-254.758333 0.475-0.354167c35.3125-25.041667 74.525-38.3875 117.520833-40.0375l0.708333-0.116667h500.895834l-1.65 23.266667-43.820834 628.570833-978.533333 0.475z m945.579167-341.920833l15.5875-225.1125c0.358333-14.7625-6.495833-22.558333-20.783334-23.15H527.579167c-31.770833 1.3-60.233333 10.041667-87.991667 29.291667l-281.333333 211.770833c-20.666667 16.295833-17.479167 29.525 3.779166 32.008333h767.941667c13.35-1.541667 20.195833-10.4 21.854167-24.808333z m-200.433334 99.5625c-5.195833 0-9.920833 3.779167-10.275 8.3875l-2.483333 28.229167c-0.354167 4.604167 3.545833 8.383333 8.8625 8.383333H918.758333c5.191667 0 9.8-3.775 10.270834-8.383333l2.3625-28.229167c0.475-4.604167-3.545833-8.3875-8.7375-8.3875h-171.258334z" p-id="1953"></path><path d="M27.391667 672.508333l-15.470834 222.279167-11.3375-1.179167 15.470834-222.395833 11.3375 1.295833z m2.483333-36.258333l-2.479167 36.258333-11.3375-1.3 2.479167-36.141666 11.3375 1.183333z m0.116667-2.245833l-0.116667 2.245833-11.3375-1.179167 0.2375-2.245833 0.116667-1.304167 11.1 2.483334z m-11.220834-1.179167v-0.708333l0.116667-0.595834-0.116667 1.304167z m11.220834 1.8875l-0.116667 0.595833-10.983333-3.783333 0.116666-0.470833 11.104167 2.6-0.120833 1.058333z m0.116666-1.0625v0.591667l-0.116666 0.470833 0.116666-1.0625z m4.370834-58.4625l9.683333 7.441667-0.708333 1.416666-0.591667 1.416667-0.708333 1.416667-0.591667 1.420833-0.708333 1.420833-0.591667 1.416667-0.5875 1.529167-0.591667 1.420833-0.470833 1.529167-0.591667 1.420833-0.475 1.533333-0.591666 1.5375-0.470834 1.533334-0.470833 1.533333-0.475 1.65-0.470833 1.5375-0.470834 1.5375-0.354166 1.65-0.354167 1.65-0.475 1.65-0.354167 1.654167-0.354166 1.65-0.354167 1.654166-0.2375 1.770834-0.354167 1.654166-0.2375 1.770834-0.354166 1.65-0.2375 1.770833-0.2375 1.775-0.116667 1.8875-0.2375 1.775-0.2375 1.770833-11.220833-1.65 0.2375-2.004166 0.116666-1.891667 0.2375-2.004167 0.354167-2.008333 0.2375-1.8875 0.2375-2.008333 0.354167-1.8875 0.354166-1.891667 0.354167-1.8875 0.354167-1.891667 0.354166-1.8875 0.475-1.775 0.470834-1.8875 0.354166-1.770833 0.470834-1.770833 0.470833-1.775 0.591667-1.775 0.470833-1.770834 0.591667-1.770833 0.470833-1.775 0.591667-1.65 0.591666-1.775 0.591667-1.65 0.708333-1.65 0.591667-1.65 0.708333-1.654167 0.708334-1.65 0.591666-1.533333 0.708334-1.654167 0.825-1.533333 0.708333-1.5375 0.716667-1.5375z m32.8375-42.6375l6.375 11.8125 0.116666-0.116667-1.179166 1.066667-1.0625 0.945833-1.179167 1.0625-1.0625 1.0625-1.0625 1.066667-1.0625 1.058333-1.0625 1.066667-1.0625 1.0625-1.0625 1.183333-0.945833 1.058334-1.0625 1.183333-0.945834 1.0625-0.945833 1.179167-0.945833 1.179166-0.945834 1.183334-0.945833 1.179166-0.945833 1.183334-0.945834 1.179166-0.825 1.3-0.945833 1.179167-0.825 1.3-0.825 1.304167-0.945833 1.3-0.825 1.183333-0.708334 1.416667-0.829166 1.3-0.825 1.3-0.708334 1.304166-0.829166 1.416667-0.708334 1.416667-0.708333 1.304166-0.708333 1.416667-9.683334-7.441667 0.825-1.65 0.829167-1.533333 0.825-1.5375 0.825-1.5375 0.829167-1.416667 0.945833-1.533333 0.829167-1.416667 0.945833-1.533333 0.945833-1.420833 0.945834-1.416667 0.945833-1.420833 0.945833-1.416667 0.945834-1.3 0.945833-1.420833 1.0625-1.3 1.0625-1.416667 0.945833-1.3 1.0625-1.304167 1.0625-1.3 1.0625-1.179166 1.183334-1.3 1.0625-1.304167 1.0625-1.179167 1.179166-1.179166 1.0625-1.179167 1.179167-1.183333 1.183333-1.179167 1.179167-1.183333 1.183333-1.179167 1.179167-1.0625 1.3-1.179167 1.183333-1.0625 0.108334-0.133333z m-0.120834 0.120833l0.116667-0.120833-0.116667 0.120833z m8.029167 10.391667l-1.5375 1.3-6.375-11.8125 1.533333-1.295833 0.2375-0.120834 6.141667 11.929167z m-6.375-11.808333h0.116667l0.116666-0.120834-0.233333 0.120834z m344.641667-242.833334l-338.616667 254.879167-5.7875-12.166667 338.616667-254.875h0.116666l5.670834 12.1625z m-5.791667-12.166666h0.116667-0.116667z m6.2625 11.929166l-0.470833 0.354167-5.670834-12.283333 0.470834-0.354167v-0.116667l5.670833 12.4z m-5.670833-12.283333v-0.116667 0.116667z m119.7625-40.983333l1.066666 14.170833h-0.358333l-3.9 0.116667-3.895833 0.354166-3.9 0.2375-3.9 0.475-3.9 0.470834-3.779167 0.470833-3.779167 0.591667-3.779166 0.708333-3.779167 0.708333-3.779167 0.708334-3.6625 0.945833-3.658333 0.825-3.779167 1.0625-3.545833 1.0625-3.658333 1.0625-3.545834 1.183333-3.658333 1.3-3.545833 1.3-3.545834 1.416667-3.425 1.416667-3.545833 1.5375-3.425 1.654166-3.425 1.65-3.425 1.654167-3.425 1.770833-3.425 1.891667-3.308333 1.891667-3.304167 2.004166-3.308333 2.008334-3.304167 2.125-3.308333 2.245833-3.1875 2.245833-5.670834-12.4 3.425-2.3625 3.425-2.245833 3.425-2.245833 3.545834-2.125 3.425-2.125 3.545833-2.008334 3.541667-1.891666 3.545833-1.891667 3.541667-1.770833 3.6625-1.770834 3.6625-1.654166 3.658333-1.654167 3.6625-1.416667 3.6625-1.5375 3.779167-1.3 3.6625-1.416666 3.779166-1.183334 3.779167-1.179166 3.779167-1.0625 3.9-1.0625 3.9-0.9375 3.779166-0.945834 3.9-0.829166 4.016667-0.708334 3.895833-0.708333 4.016667-0.591667 3.9-0.591666 4.016667-0.470834 4.133333-0.354166 4.0125-0.354167 4.020833-0.354167 4.133334-0.116666h-0.3625z m1.066666 14.175H528.7625h0.358333z m0.825-0.120834l-0.825 0.116667-1.066666-14.170833 0.708333-0.116667h0.595833l0.5875 14.170833z m-1.183333-14.170833h0.595833-0.595833z m501.4875 14.170833H529.354167v-14.170833h500.895833l5.670833 7.675-5.670833 6.495833z m0-14.170833h6.145833l-0.470833 7.675-5.675-7.675z m-7.325 29.7625l1.654167-23.266667 11.341666 1.179167-1.654166 23.383333-11.341667-1.295833z m-43.8125 628.575L1022.925 264.5625l11.341667 1.3-43.820834 628.570833-5.666666 6.5-5.666667-7.795833z m11.333333 1.295833l-0.470833 6.5h-5.195833l5.666666-6.5zM6.25 887.1125l978.529167-0.470833v14.291666l-978.529167 0.35-5.666667-7.675 5.666667-6.495833z m0 14.170833h-6.258333l0.591666-7.675 5.666667 7.675z m966.8375-573.416666l-15.7125 224.995833-11.216667-1.3 15.5875-224.995833 11.341667 0.825v0.475z m0-0.470834v0.475-0.475z m-26.454167-16.3v-14.170833h0.2375l1.416667 0.116667 1.416667 0.116666 1.416666 0.116667 1.420834 0.2375 1.3 0.354167 1.304166 0.354166 1.3 0.354167 1.179167 0.470833 1.3 0.470834 1.179167 0.591666 1.066666 0.708334 1.179167 0.708333 1.066667 0.708333 0.945833 0.825 1.0625 0.945834 0.825 0.945833 0.945833 1.0625 0.829167 1.183333 0.708333 1.0625 0.708334 1.3 0.708333 1.3 0.591667 1.3 0.470833 1.416667 0.470833 1.416667 0.354167 1.416666 0.358333 1.5375 0.2375 1.533334 0.2375 1.5375 0.1125 1.5375 0.120834 1.533333v3.308333l-11.341667-0.354166v-2.125l-0.116667-1.0625v-0.945834l-0.116666-0.825-0.116667-0.829166-0.2375-0.708334-0.116667-0.708333-0.2375-0.708333-0.241666-0.591667-0.2375-0.591667-0.2375-0.475-0.35-0.591666-0.358334-0.470834-0.2375-0.470833-0.470833-0.354167-0.354167-0.470833-0.470833-0.354167-0.470833-0.470833-0.470834-0.354167-0.591666-0.354166-0.708334-0.354167-0.595833-0.354167-0.820833-0.354166-0.7125-0.2375-0.825-0.2375-0.945834-0.2375-0.945833-0.2375-0.945833-0.116667-1.066667-0.116667-1.0625-0.116666-1.183333-0.120834h0.116666z m0-14.170833h0.233334-0.233334z m-419.054166 0H946.633333v14.170833H527.579167l-0.2375-14.170833h0.2375z m-0.233334 0h0.233334-0.233334z m-84.8 42.516667l-5.904166-12.1625 0.116666-0.116667 2.716667-1.891667 2.716667-1.770833 2.716666-1.654167 2.716667-1.65 2.716667-1.5375 2.716666-1.5375 2.716667-1.5375 2.716667-1.416666 2.716666-1.3 2.716667-1.3 2.833333-1.183334 2.716667-1.179166 2.833333-1.183334 2.716667-1.0625 2.833333-0.945833 2.8375-0.945833 2.833334-0.945834 2.833333-0.829166 2.833333-0.708334 2.8375-0.829166 2.833334-0.591667 2.95-0.708333 2.8375-0.591667 2.95-0.475 2.95-0.470833 2.833333-0.470834 2.954167-0.354166 3.070833-0.354167 2.95-0.2375 2.954167-0.2375 3.066666-0.2375 2.954167-0.116667 0.470833 14.170834-2.954166 0.120833-2.833334 0.2375-2.95 0.2375-2.833333 0.2375-2.716667 0.354167-2.833333 0.354166-2.833333 0.354167-2.716667 0.475-2.716667 0.470833-2.833333 0.591667-2.716667 0.591667-2.716666 0.591666-2.6 0.708334-2.716667 0.708333-2.6 0.829167-2.716667 0.825-2.6 0.945833-2.716666 0.945833-2.6 0.945834-2.6 1.0625-2.6 1.0625-2.6 1.183333-2.479167 1.179167-2.6 1.3-2.6 1.3-2.6 1.416666-2.479167 1.416667-2.6 1.416667-2.479166 1.654166-2.6 1.5375-2.479167 1.65-2.6 1.770834 0.258333-0.1125z m-5.908333-12.1625l0.116667-0.116667-0.116667 0.116667z m-281.333333 211.766666l281.333333-211.766666 5.904167 12.1625-281.45 211.654166-5.904167-12.05h0.116667z m-0.116667 0h0.116667-0.116667z m6.85 30.945834v14.170833h-0.470833l-2.125-0.2375-2.008334-0.354167-2.008333-0.470833-1.770833-0.470833-1.770834-0.595834-1.654166-0.708333-1.65-0.708333-1.5375-0.945834-1.416667-0.945833-1.3-1.066667-1.3-1.295833-1.179167-1.420833-1.0625-1.533334-0.825-1.775-0.708333-2.004166-0.354167-2.004167-0.2375-2.129167v-2.004166l0.2375-2.129167 0.475-2.004167 0.591667-1.891666 0.825-1.770834 0.829167-1.775 1.0625-1.770833 1.183333-1.654167 1.179167-1.65 1.416666-1.65 1.533334-1.65 1.5375-1.5375 1.770833-1.65 1.891667-1.65 2.008333-1.654166 6.020833 12.05-1.65 1.416666-1.654166 1.304167-1.416667 1.416667-1.3 1.3-1.0625 1.179166-1.0625 1.183334-0.829167 1.058333-0.708333 1.066667-0.470833 0.945833-0.470834 0.829167-0.2375 0.708333-0.2375 0.5875-0.116666 0.358333V565.05l0.116666 0.116667 0.116667 0.2375 0.2375 0.354166 0.470833 0.354167 0.470834 0.470833 0.708333 0.470834 0.829167 0.470833 0.945833 0.470833 1.183333 0.358334 1.179167 0.470833 1.416667 0.354167 1.533333 0.354166 1.654167 0.354167 1.770833 0.2375-0.6-0.133333z m0 14.170833h-0.475 0.475z m767.941667 0H162.0375v-14.170833h767.941667l0.470833 14.170833h-0.470833z m0.470833 0h-0.475 0.475z m15.708333-32.595833l11.216667 1.3v0.354166l-0.116667 1.5375-0.2375 1.533334-0.354166 1.533333-0.2375 1.5375-0.354167 1.416667-0.470833 1.416666-0.358334 1.416667-0.470833 1.420833-0.5875 1.3-0.595833 1.304167-0.591667 1.295833-0.708333 1.304167-0.7125 1.179167-0.708334 1.066666-0.820833 1.179167-0.829167 1.0625-0.945833 0.945833-0.945833 0.95-0.945834 0.945834-1.066666 0.825-1.0625 0.825-1.0625 0.708333-1.179167 0.591667-1.179167 0.7125-1.183333 0.470833-1.179167 0.5875-1.3 0.475-1.304166 0.354167-1.3 0.354166-1.3 0.2375-1.416667 0.2375-1.420833 0.2375-1.0625-14.054166 1.0625-0.2375 1.0625-0.116667 0.945833-0.2375 0.945833-0.2375 0.829167-0.358333 0.945833-0.2375 0.708334-0.35 0.829166-0.358334 0.708334-0.35 0.708333-0.470833 0.591667-0.358333 0.591666-0.470834 0.591667-0.470833 0.591667-0.470833 0.470833-0.470834 0.470833-0.595833 0.470834-0.5875 0.358333-0.595833 0.470833-0.591667 0.354167-0.591667 0.354167-0.708333 0.354166-0.708333 0.354167-0.708334 0.354167-0.829166 0.2375-0.820834 0.2375-0.829166 0.241666-0.945834 0.2375-0.945833 0.2375-0.945833 0.1125-1.066667 0.2375-1.0625 0.120834-1.0625v0.229167z m11.220834 1.3v0.354166-0.354166z m-5.55-0.591667l-5.666667-0.708333 5.666667 0.708333z m5.55 0.591667v0.354166-0.354166z m-210.5875 108.183333l-11.341667-1.533333 0.120833-0.945834 0.2375-0.945833 0.1125-0.829167 0.2375-0.945833 0.358334-0.708333 0.354166-0.829167 0.354167-0.708333 0.354167-0.708334 0.354166-0.708333 0.470834-0.591667 0.470833-0.591666 0.470833-0.591667 0.470834-0.591667 0.470833-0.470833 0.475-0.470833 0.591667-0.470834 0.591666-0.470833 0.470834-0.358333 0.591666-0.354167 0.595834-0.354167 0.5875-0.354166 0.595833-0.2375 0.708333-0.354167 0.591667-0.2375 0.591667-0.2375 0.708333-0.120833 0.595833-0.1125 0.708334-0.2375h0.708333l0.591667-0.120834 0.708333-0.1125h0.708333v14.170834l-0.2375 0.116666H750.225l-0.2375 0.116667h-0.241667l-0.2375 0.116667-0.35 0.116666-0.2375 0.116667h-0.2375l-0.2375 0.116667-0.120833 0.116666-0.2375 0.116667-0.2375 0.116667-0.1125 0.116666-0.2375 0.2375-0.120833 0.116667-0.116667 0.116667-0.116667 0.116666-0.116666 0.116667-0.116667 0.116667-0.120833 0.145833v0.116667l-0.116667 0.116666v-0.116666h0.116667v-0.116667z m-11.341667-1.533333v0.116666-0.116666z m-2.479167 28.229166l2.479167-28.225 11.341667 1.533334-2.479167 28.225-11.341667-1.533334z m0 0l0.116667-0.2375-0.116667 0.2375z m14.533334 2.004167v14.175h-1.420834l-0.591666-0.116667-0.708334-0.116666-0.708333-0.120834-0.595833-0.1125-0.708334-0.2375-0.591666-0.2375-0.591667-0.2375-0.591667-0.358333-0.7125-0.2375-0.5875-0.35-0.470833-0.358333-0.595833-0.470834-0.591667-0.470833-0.470833-0.470833-0.591667-0.470834-0.470833-0.595833-0.470834-0.5875-0.470833-0.595833-0.358333-0.708334-0.470834-0.708333-0.35-0.708333-0.358333-0.708334-0.2375-0.829166-0.2375-0.820834-0.2375-0.95-0.2375-0.825-0.116667-0.945833v-2.841667l11.341667 1.533334v-0.579167h-0.120833v-0.120833h0.120833v0.120833h0.1125v0.1125l0.120833 0.120833 0.1125 0.1125h0.120834l0.2375 0.120834 0.1125 0.1125h0.120833l0.2375 0.120833 0.2375 0.1125h0.2375l0.2375 0.120833h0.2375l0.2375 0.1125h0.841667v0.016667z m171.254166 14.175h-171.258333v-14.175H918.758333v14.175z m4.608334-16.179167l11.216666 1.533334v0.945833l-0.2375 0.829167-0.2375 0.945833-0.2375 0.829167-0.241666 0.820833-0.35 0.829167-0.358334 0.708333-0.35 0.708333-0.470833 0.708334-0.358333 0.591666-0.470834 0.591667-0.470833 0.595833-0.470833 0.470834-0.470834 0.591666-0.595833 0.470834-0.470833 0.470833-0.5875 0.354167-0.595834 0.470833-0.591666 0.354167-0.470834 0.354166-0.708333 0.2375-0.591667 0.358334-0.595833 0.2375-0.5875 0.2375-0.708333 0.2375-0.595834 0.2375-0.708333 0.1125-0.591667 0.120833-0.708333 0.116667-0.7125 0.116666h-1.295833v-14.175h0.825l0.2375-0.1125h0.358333l0.2375-0.120833h0.2375l0.2375-0.1125 0.2375-0.120833 0.2375-0.1125 0.2375-0.120834 0.2375-0.1125 0.2375-0.120833 0.116667-0.1125 0.2375-0.120833 0.116666-0.1125 0.2375-0.120834 0.120834-0.116666 0.1125-0.116667 0.120833-0.116667v-0.116666l0.1125-0.116667v-0.116667h0.120833v-0.116666 0.204166h0.008334z m11.216666 1.533334l0.116667-0.1125-0.116667 0.1125z m2.479167-28.229167l-2.479167 28.225-11.216666-1.533333 2.479166-28.225 11.216667 1.533333z m-11.220833-1.533333l-0.116667 0.116666 0.116667-0.116666z m-3.183334-0.5875v-14.170834h0.708334l0.5875 0.1125 0.708333 0.120834h0.7125l0.591667 0.2375 0.708333 0.1125 0.595833 0.241666 0.708334 0.2375 0.5875 0.2375 0.595833 0.2375 0.591667 0.354167 0.591666 0.354167 0.591667 0.354166 0.591667 0.470834 0.595833 0.358333 0.470833 0.470833 0.470834 0.5875 0.5875 0.470834 0.475 0.595833 0.470833 0.708333 0.354167 0.591667 0.354166 0.708333 0.470834 0.7125 0.2375 0.820834 0.354166 0.829166 0.2375 0.825 0.2375 0.945834 0.120834 0.825 0.1125 0.945833 0.120833 0.95v0.945833l-0.120833 0.945834-11.216667-1.533334v0.7h0.116667-0.1375v-0.116666l-0.116667-0.116667-0.116667-0.116667h-0.116666l-0.116667-0.116666-0.116667-0.116667-0.116666-0.116667h-0.116667l-0.2375-0.116666-0.120833-0.116667h-0.2375l-0.2375-0.116667h-0.2375l-0.2375-0.116666h-0.825l-0.233334-0.1375z m-171.2625-14.175h171.2625v14.170833h-171.2625v-14.170833zM830.620833 335.875l12.579167 16.6-248.741667 188.508333-12.583333-16.604166zM885.966667 373.6375l12.5875 16.6-198.7625 150.716667-12.583334-16.6zM898.6625 439.604167l12.575 16.616666-112.091667 84.808334-12.570833-16.616667z" p-id="1954"></path></svg>