<?xml version="1.0" standalone="no"?><!DOCTYPE svg PUBLIC "-//W3C//DTD SVG 1.1//EN" "http://www.w3.org/Graphics/SVG/1.1/DTD/svg11.dtd"><svg t="1552644012758" class="icon" style="" viewBox="0 0 1024 1024" version="1.1" xmlns="http://www.w3.org/2000/svg" p-id="2112" xmlns:xlink="http://www.w3.org/1999/xlink" width="46" height="46"><defs><style type="text/css"></style></defs><path d="M587.852 349.018c44.645 9.06 86.442 25.963 123.89 49.205h198.482c62.837 0 113.776 50.938 113.776 113.783v303.21C1024 878.057 973.067 929 910.224 929H113.776C50.939 929 0 878.062 0 815.217v-303.21c0-62.84 50.933-113.782 113.776-113.782h198.481c37.448-23.244 79.246-40.146 123.891-49.207V246.65H307.514a75.852 75.852 0 0 1-64.315-35.64l-25.125-40.186a49.555 49.555 0 0 1-7.536-26.27c0-27.369 22.186-49.555 49.554-49.555h503.816c9.29 0 18.393 2.612 26.27 7.537 23.206 14.508 30.257 45.082 15.748 68.288l-25.124 40.185a75.852 75.852 0 0 1-64.316 35.64H587.852v102.368z m-75.824 87.117c-115.035 0-208.62 93.542-208.62 208.518 0 114.979 93.585 208.522 208.62 208.522 114.977 0 208.565-93.6 208.565-208.522 0-114.919-93.59-208.458-208.565-208.518z m0 360.25c-83.69 0-151.732-68.066-151.732-151.653 0-83.643 68.042-151.649 151.733-151.649 83.63 0 151.675 68.006 151.675 151.649 0 83.64-68.046 151.652-151.675 151.652z" p-id="2113"></path></svg>