<?xml version="1.0" encoding="utf-8"?>
<!-- Svg Vector Icons : http://www.onlinewebfonts.com/icon -->
<!DOCTYPE svg PUBLIC "-//W3C//DTD SVG 1.1//EN" "http://www.w3.org/Graphics/SVG/1.1/DTD/svg11.dtd">
<svg version="1.1" xmlns="http://www.w3.org/2000/svg" xmlns:xlink="http://www.w3.org/1999/xlink" x="0px" y="0px" viewBox="0 0 1000 1000" enable-background="new 0 0 1000 1000" xml:space="preserve">
<metadata> Svg Vector Icons : http://www.onlinewebfonts.com/icon </metadata>
<g><path d="M871.5,381L504.7,196L628.1,45.1L990,238.2L871.5,381L871.5,381z M10,235L380,45.1l118.5,150.9L135,381L10,235L10,235z M498.2,555.3l-64.9,183.4L69.8,555.3l64.9-173.6L498.2,555.3L498.2,555.3z M440.6,766.6l54.8-142.8v331L112,777.2l1.2-176.1L440.6,766.6L440.6,766.6z M944.5,553.6L568,737l-61.7-181.7l365.2-173.6L944.5,553.6L944.5,553.6z M891,602.3v174.9L508.8,954.9v-331L559.6,767L891,602.3L891,602.3z"/></g>
</svg>