<?xml version="1.0" standalone="no"?><!DOCTYPE svg PUBLIC "-//W3C//DTD SVG 1.1//EN" "http://www.w3.org/Graphics/SVG/1.1/DTD/svg11.dtd"><svg t="1552294104441" class="icon" style="" viewBox="0 0 1820 1024" version="1.1" xmlns="http://www.w3.org/2000/svg" p-id="2006" xmlns:xlink="http://www.w3.org/1999/xlink" width="355.46875" height="200"><defs><style type="text/css"></style></defs><path d="M152.462222 0C68.949333 0 0 68.949333 0 152.462222v84.195556c0 47.786667 22.528 93.297778 60.871111 121.969778L227.555556 483.555556V853.333333C227.555556 946.972444 304.583111 1024 398.222222 1024h732.273778c55.068444 0 106.837333-26.737778 138.808889-71.566222l0.910222-1.137778L1737.500444 227.555556H1820.444444V113.777778h-131.527111c-37.888 0-74.979556 12.629333-104.903111 35.953778l-0.910222 0.682666L1251.555556 431.786667V398.222222c0-93.639111-77.027556-170.666667-170.666667-170.666666H796.444444V113.777778h113.777778V0H568.888889v113.777778h113.777778v113.777778H328.817778l-27.875556-112.184889A153.144889 153.144889 0 0 0 152.917333 0H152.462222z m0 113.777778h0.455111c17.976889 0 33.109333 11.719111 37.546667 29.354666L227.555556 291.043556V341.333333l-98.190223-73.728A38.456889 38.456889 0 0 1 113.777778 236.657778v-84.195556c0-22.072889 16.611556-38.684444 38.684444-38.684444zM341.333333 341.333333h739.555556c31.971556 0 56.888889 24.917333 56.888889 56.888889v279.324445l384.568889-326.542223-345.429334 535.438223h-0.227555A56.888889 56.888889 0 0 1 1130.496 910.222222H398.222222a56.092444 56.092444 0 0 1-56.888889-56.888889V341.333333z m1365.333334 227.555556s-113.777778 170.325333-113.777778 227.555555c0 71.111111 50.858667 113.777778 113.777778 113.777778 62.919111 0 113.777778-42.666667 113.777777-113.777778 0-57.230222-113.777778-227.555556-113.777777-227.555555z" fill="#949AA3" p-id="2007"></path></svg>