<?xml version="1.0" standalone="no"?><!DOCTYPE svg PUBLIC "-//W3C//DTD SVG 1.1//EN" "http://www.w3.org/Graphics/SVG/1.1/DTD/svg11.dtd"><svg t="1552964005874" class="icon" style="" viewBox="0 0 1303 1024" version="1.1" xmlns="http://www.w3.org/2000/svg" p-id="3373" xmlns:xlink="http://www.w3.org/1999/xlink" width="46" height="46"><defs><style type="text/css"></style></defs><path d="M557.242182 0C423.191273 0 286.254545 52.782545 180.596364 142.522182 74.845091 232.261818 0 361.565091 0 512c0 150.434909 74.845091 279.738182 180.596364 369.477818C286.161455 971.217455 423.098182 1024 557.149091 1024c37.422545 0 71.68-20.386909 95.138909-48.500364 23.365818-28.206545 39.656727-64.325818 52.875636-107.985454C731.787636 779.915636 744.727273 660.48 744.727273 512s-13.032727-268.101818-39.470546-355.421091c-13.218909-43.752727-29.509818-79.872-52.875636-107.985454C628.922182 20.293818 594.664727 0 557.242182 0z m0 93.090909c6.795636 0 12.194909 1.303273 23.458909 14.894546s24.482909 39.284364 35.467636 75.403636C638.138182 256 651.636364 369.198545 651.636364 512c0 142.894545-13.498182 256.093091-35.374546 328.610909-11.077818 36.119273-24.203636 61.812364-35.560727 75.403636-11.170909 13.591273-16.663273 14.894545-23.458909 14.894546-109.102545 0-227.514182-44.869818-316.322909-120.366546C152.017455 735.138909 93.090909 631.621818 93.090909 512s58.926545-223.045818 147.828364-298.542545C329.728 138.053818 448.139636 93.090909 557.242182 93.090909zM837.818182 186.181818v93.090909h465.454545V186.181818H837.818182z m0 279.272727v93.09091h465.454545V465.454545H837.818182z m0 279.272728v93.090909h465.454545V744.727273H837.818182z" fill="#949AA3" p-id="3374"></path></svg>