<?xml version="1.0" standalone="no"?><!DOCTYPE svg PUBLIC "-//W3C//DTD SVG 1.1//EN" "http://www.w3.org/Graphics/SVG/1.1/DTD/svg11.dtd"><svg t="1556959215221" class="icon" style="" viewBox="0 0 1059 1024" version="1.1" xmlns="http://www.w3.org/2000/svg" p-id="4613" xmlns:xlink="http://www.w3.org/1999/xlink" width="206.8359375" height="200"><defs><style type="text/css"></style></defs><path d="M60.837495 730.278788L0 670.409697 141.963636 524.576323 0 384.881778l101.403152-79.81899 324.516202 345.394424-81.126142 79.821576H60.837495z m918.781414-164.284768l-59.609212-59.335111-39.747232 59.335111s9.943919 9.88703 19.873616 19.779233c9.927111 9.890909-6.622384 59.33899-19.873616 79.119515-13.244768 19.781818-119.232646 138.466263-119.232647 138.466262L602.048646 664.892768l19.88396-39.559758c-3.315071-16.482263-109.304242-65.921293-119.237818-59.33899-9.942626 6.595232-72.865616-16.486141-99.360323-39.558464-26.501172-23.07103-198.724525-178.028606-198.724526-178.028607s89.41899-89.000081 119.228768-79.114343c29.817535 9.897374 96.060768 65.94198 139.112727 79.114343 43.046788 13.198222 231.844202 23.086545 258.336324 19.790869 26.498586-3.291798 59.615677-39.566222 59.615676-39.566222l-39.751111-39.553293L999.502869 51.717172l59.613091 375.818343-79.497051 138.458505z" p-id="4614"></path></svg>