<?xml version="1.0" standalone="no"?><!DOCTYPE svg PUBLIC "-//W3C//DTD SVG 1.1//EN" "http://www.w3.org/Graphics/SVG/1.1/DTD/svg11.dtd"><svg t="1559210764420" class="icon" style="" viewBox="0 0 1024 1024" version="1.1" xmlns="http://www.w3.org/2000/svg" p-id="2002" xmlns:xlink="http://www.w3.org/1999/xlink" width="200" height="200"><defs><style type="text/css"></style></defs><path d="M489.12384 562.6368a992.24576 992.24576 0 0 1-38.89664-30.99648l-4.76672-4.00384-4.9152 3.81952c-89.01632 69.21728-127.09376 111.0016-157.85984 174.4384-29.82912 61.50144-29.312 113.41312-28.8512 159.21152l0.01024 0.95744c0.0512 5.248 0.1024 10.48576 0.1024 15.7184 0 17.95584 13.94688 32.56832 31.08352 32.56832 17.14176 0 31.08352-14.61248 31.08352-32.56832 0-5.78048-0.05632-11.56096-0.11776-17.37216-0.41984-42.03008-0.81408-81.73056 22.11328-128.99328 27.15136-55.9872 63.25248-93.73696 151.02976-160.512l8.07424-6.144-8.0896-6.12352zM766.62272 135.5264l-0.128-0.7168c-2.47808-15.81568-15.36-27.2896-30.63296-27.2896-1.7408 0-3.50208 0.15872-5.23264 0.46592-16.81408 2.98496-28.24704 19.75808-25.4976 37.27872 0.0512 0.384 4.89984 38.83008-17.46944 98.70336-37.5808 100.608-96.37376 159.32928-152.79104 205.952l-7.26016 6.00064 7.3216 5.92384a932.32128 932.32128 0 0 0 25.80992 20.15744c4.63872 3.48672 9.1648 6.95296 13.63968 10.40384l4.93568 3.80928 4.75136-4.03456c93.8496-79.67744 144.24576-155.07968 171.04384-239.31392 18.2016-57.18016 15.02208-98.05824 11.50976-117.34016z" p-id="2003"></path><path d="M750.99136 707.40992c-33.03936-68.1728-96.00512-135.74144-198.15424-212.64896-71.97696-54.1952-166.18496-141.31712-206.2336-248.59648-21.0688-56.43264-17.21344-93.08672-17.03936-94.60224 3.34848-21.78048-10.7264-42.46016-31.43168-46.13632a36.6336 36.6336 0 0 0-6.42048-0.56832c-18.816 0-34.69312 14.18752-37.76 33.73056-1.32096 8.40704-28.99968 208.384 254.27456 421.6576 90.54208 68.16768 147.62496 128.27136 174.51008 183.74656 22.08768 45.568 21.69856 84.34176 21.28896 125.36832l-0.01024 0.9728c-0.0512 5.504-0.1024 11.00288-0.1024 16.49152 0 22.20544 17.18272 40.27392 38.30272 40.27392s38.30784-18.06336 38.30784-40.27392c0-5.46816 0.05632-10.93632 0.11264-16.59392 0.4608-46.6944 0.98816-99.61984-29.6448-162.82112z" p-id="2004"></path><path d="M632.61696 160.28672H388.84864a32.60928 32.60928 0 0 0-32.56832 32.56832 32.60416 32.60416 0 0 0 32.56832 32.56832h243.76832a32.60928 32.60928 0 0 0 32.56832-32.56832 32.60416 32.60416 0 0 0-32.56832-32.56832zM585.67168 265.472H435.79904a32.60928 32.60928 0 0 0-32.56832 32.56832 32.60416 32.60416 0 0 0 32.56832 32.56832h149.87264a32.60928 32.60928 0 0 0 32.56832-32.56832 32.60416 32.60416 0 0 0-32.56832-32.56832zM388.84864 882.10944h243.76832c17.95584 0 32.56832-14.61248 32.56832-32.56832s-14.61248-32.56832-32.56832-32.56832H388.84864c-17.95584 0-32.56832 14.61248-32.56832 32.56832s14.61248 32.56832 32.56832 32.56832zM435.79904 776.92416h149.87264a32.60928 32.60928 0 0 0 32.56832-32.56832 32.60416 32.60416 0 0 0-32.56832-32.56832H435.79904a32.60928 32.60928 0 0 0-32.56832 32.56832 32.60416 32.60416 0 0 0 32.56832 32.56832z" p-id="2005"></path></svg>