<?xml version="1.0" standalone="no"?><!DOCTYPE svg PUBLIC "-//W3C//DTD SVG 1.1//EN" "http://www.w3.org/Graphics/SVG/1.1/DTD/svg11.dtd"><svg t="1557196428738" class="icon" style="" viewBox="0 0 1024 1024" version="1.1" xmlns="http://www.w3.org/2000/svg" p-id="1995" xmlns:xlink="http://www.w3.org/1999/xlink" width="200" height="200"><defs><style type="text/css"></style></defs><path d="M755.809524 365.714286H365.714286a24.380952 24.380952 0 0 0 0 48.761904h390.095238a24.380952 24.380952 0 1 0 0-48.761904zM755.809524 512H512a24.380952 24.380952 0 0 0 0 48.761905h243.809524a24.380952 24.380952 0 1 0 0-48.761905zM755.809524 658.285714h-170.666667a24.380952 24.380952 0 1 0 0 48.761905h170.666667a24.380952 24.380952 0 1 0 0-48.761905z" p-id="1996"></path><path d="M731.428571 0H219.428571C165.668571 0 121.904762 43.739429 121.904762 97.52381v405.308952a291.181714 291.181714 0 0 1 48.761905-22.503619V97.52381c0-26.89219 21.869714-48.761905 48.761904-48.761905h463.238096v121.904762c0 80.676571 65.609143 146.285714 146.285714 146.285714h121.904762v560.761905c0 26.89219-21.845333 48.761905-48.761905 48.761904H505.368381a295.984762 295.984762 0 0 1-44.27581 48.761905H902.095238c53.784381 0 97.52381-43.739429 97.52381-97.523809V268.190476L731.428571 0z m97.52381 268.190476c-53.76 0-97.52381-43.739429-97.52381-97.523809V68.949333L930.669714 268.190476H828.952381z" p-id="1997"></path><path d="M268.190476 512C133.753905 512 24.380952 621.372952 24.380952 755.809524s109.372952 243.809524 243.809524 243.809524 243.809524-109.372952 243.809524-243.809524-109.348571-243.809524-243.809524-243.809524z m0 438.857143c-107.544381 0-195.047619-87.503238-195.047619-195.047619s87.503238-195.047619 195.047619-195.047619 195.047619 87.503238 195.047619 195.047619-87.478857 195.047619-195.047619 195.047619z" p-id="1998"></path><path d="M322.755048 743.399619c-9.752381-4.266667-27.087238-8.606476-52.955429-13.190095-28.867048-5.071238-40.252952-9.654857-44.763429-12.604953-7.216762-4.583619-10.410667-10.605714-10.410666-19.431619 0-9.313524 4.33981-17.286095 13.604571-25.185523 9.508571-8.045714 21.918476-12.166095 36.912762-12.166096 3.803429 0 7.606857 0.219429 11.459048 0.682667 10.727619 1.389714 20.138667 4.632381 29.037714 10.215619l3.754667 2.364952c2.82819 2.389333 4.949333 4.705524 6.582857 7.143619 3.705905 5.656381 10.142476 9.020952 17.188571 9.094096a21.113905 21.113905 0 0 0 10.703238-2.901334 19.480381 19.480381 0 0 0 9.191619-12.531809 18.822095 18.822095 0 0 0-2.730666-14.799238c-7.655619-11.654095-18.797714-20.870095-32.768-27.452953a97.499429 97.499429 0 0 0-13.190095-5.656381 107.76381 107.76381 0 0 0-19.114667-4.315428v-14.092191c0-7.41181-1.80419-12.970667-5.583238-17.115428a20.48 20.48 0 0 0-15.238095-6.314667 20.23619 20.23619 0 0 0-15.286858 6.412191c-3.705905 3.998476-5.534476 9.557333-5.534476 17.017904v14.531048c-19.431619 3.681524-35.693714 11.800381-48.347428 24.185905-14.969905 14.726095-22.528 31.768381-22.528 50.663619 0 20.74819 7.484952 36.864 22.211047 47.811047 13.312 10.118095 35.644952 17.944381 68.266667 23.990858 20.48 3.584 33.743238 6.558476 39.424 8.777142 8.094476 3.169524 13.994667 7.168 17.554286 11.824762 3.291429 4.36419 4.973714 9.825524 4.973714 16.213334 0 10.020571-4.803048 18.480762-15.067429 26.502095-10.727619 8.362667-26.112 12.629333-45.641143 12.629333a173.104762 173.104762 0 0 1-11.215238-0.438857c-0.292571-0.097524-3.291429-0.341333-3.267047-0.341333-12.434286-1.438476-22.625524-4.729905-30.354286-9.849905a60.074667 60.074667 0 0 1-8.192-6.265905 28.42819 28.42819 0 0 1-3.145143-3.925333 9.362286 9.362286 0 0 0-2.340571-2.657524c-0.048762 0-0.073143 0.048762-0.048762 0.097524a10.776381 10.776381 0 0 0-6.095238-4.534857 20.333714 20.333714 0 0 0-8.728381-1.901715 19.943619 19.943619 0 0 0-10.581334 2.901334 19.358476 19.358476 0 0 0-9.216 12.239238 18.822095 18.822095 0 0 0 2.681905 15.067428c9.313524 14.189714 23.722667 24.795429 42.569143 31.451429 8.557714 3.291429 17.67619 5.583238 27.160381 6.851048v18.627047c0 7.533714 1.828571 13.092571 5.510095 16.944762a20.065524 20.065524 0 0 0 15.238096 6.509714 20.601905 20.601905 0 0 0 15.262476-6.387809c3.730286-4.022857 5.558857-9.630476 5.558857-17.042286v-18.822095c24.015238-3.681524 43.178667-12.01981 57.027047-24.771048 16.262095-14.921143 24.478476-32.646095 24.478477-52.614095 0-14.823619-3.779048-27.794286-11.215238-38.448762-7.363048-10.581333-18.456381-19.017143-32.792381-24.990476z" p-id="1999"></path></svg>