<?xml version="1.0" standalone="no"?><!DOCTYPE svg PUBLIC "-//W3C//DTD SVG 1.1//EN" "http://www.w3.org/Graphics/SVG/1.1/DTD/svg11.dtd"><svg t="1552099973852" class="icon" style="" viewBox="0 0 1024 1024" version="1.1" xmlns="http://www.w3.org/2000/svg" p-id="6430" xmlns:xlink="http://www.w3.org/1999/xlink" width="46" height="46"><defs><style type="text/css"></style></defs><path d="M853.244008 512.048739c0 13.427511-11.014945 24.320609-24.588672 24.320609a24.442456 24.442456 0 0 1-24.588672-24.320609c0-13.45188 10.990576-24.344979 24.588672-24.344979 13.573727 0 24.588672 10.893099 24.588672 24.344979z m-100.133651 206.847025a24.344979 24.344979 0 1 1-34.38515 34.458258 24.344979 24.344979 0 0 1 34.38515-34.458258zM718.652099 270.865302a24.369348 24.369348 0 1 1 34.458258 34.506997 24.369348 24.369348 0 0 1-34.458258-34.506997zM511.878182 1023.878153C229.242485 1023.878153 0.121876 794.757544 0.121876 512.121847h0.097477l-0.024369-0.073108a48.665588 48.665588 0 1 1 97.331175 0L97.50179 512.121847H97.599267c0 228.803808 185.475107 414.278915 414.278915 414.278915s414.278915-185.475107 414.278915-414.278915c0-212.232651-159.667968-386.912137-365.369633-411.135269v45.521942a48.738696 48.738696 0 0 1-48.738696 48.738696h-0.365541a48.738696 48.738696 0 0 1-48.738695-48.738696V48.860543a48.738696 48.738696 0 0 1 48.738695-48.738696h0.365541c1.778962 0 3.460447 0.316802 5.21504 0.511756C797.389463 3.557925 1023.634489 231.289481 1023.634489 512.121847c0 282.635697-229.120609 511.756307-511.756307 511.756306z m24.369348-194.954783a24.369348 24.369348 0 1 1-48.738696 0 24.369348 24.369348 0 0 1 48.738696 0z m-231.143265-110.027606a24.369348 24.369348 0 1 1-34.506997 34.458258 24.369348 24.369348 0 0 1 34.506997-34.458258zM509.173185 439.013803C551.039724 439.013803 584.986226 471.741837 584.986226 512.121847s-33.946502 73.108044-75.813041 73.108044C467.306645 585.229891 243.815355 512.121847 243.815355 512.121847s223.49129-73.108044 265.35783-73.108044z m-192.274156-97.258068H48.93368a48.738696 48.738696 0 0 1-48.689958-48.397525c-0.194955-3.387339 0.38991-6.628463 0.901666-9.991432a13.793051 13.793051 0 0 1 0.194955-0.974774c1.681485-9.991433 5.458734-19.690433 13.159448-27.415517L157.255431 112.220847a50.493289 50.493289 0 0 1 71.40219 71.37782L168.343485 243.912803h148.555544a48.738696 48.738696 0 0 1 48.738696 48.738696v0.365541a48.738696 48.738696 0 0 1-48.738696 48.738695z" fill="#A7B0C6" p-id="6431"></path></svg>