<?xml version="1.0" standalone="no"?><!DOCTYPE svg PUBLIC "-//W3C//DTD SVG 1.1//EN" "http://www.w3.org/Graphics/SVG/1.1/DTD/svg11.dtd"><svg t="1558078132018" class="icon" style="" viewBox="0 0 1024 1024" version="1.1" xmlns="http://www.w3.org/2000/svg" p-id="6918" xmlns:xlink="http://www.w3.org/1999/xlink" width="200" height="200"><defs><style type="text/css"></style></defs><path d="M429.29 644a66.72 66.72 0 0 0-24.8 4.81 56.85 56.85 0 0 0-20.4 13.59 71.84 71.84 0 0 0-13.59 20.4 59 59 0 0 0-5.2 24.39q0 26.45 18.79 45.21t45.21 18.79q26.42 0 45.21-18.79t18.79-45.21q0-26.39-18.79-44.8A62.33 62.33 0 0 0 429.29 644z m226-383.16a22 22 0 0 0-8.8-6 30.73 30.73 0 0 0-10.8-2v-0.05H277.3A27.36 27.36 0 0 0 250.09 280v38.05H121.48a22.88 22.88 0 0 0 0 45.77h128.61v36.73H172a22.88 22.88 0 0 0 0 45.77h78.12v36.73H79.94a22.88 22.88 0 0 0 0 45.77h170.15v137.6a27.36 27.36 0 0 0 27.21 27.21h55.2q5.61-36 32.79-60t64-24q36.81 0 64 24a97.8 97.8 0 0 1 32.79 60h109.6a29.86 29.86 0 0 0 10.8-2 22.6 22.6 0 0 0 8.8-6 38.52 38.52 0 0 0 6-8.8 23.39 23.39 0 0 0 2.41-10.39V280a22.8 22.8 0 0 0-2.41-10.39 40.53 40.53 0 0 0-5.99-8.77zM965.74 517.2a42.78 42.78 0 0 0-3.61-10.8l-3.2-11.21q-2.41-4.81-4.81-8.8t-4-7.2a18.53 18.53 0 0 0-3.2-4.81l-0.82-1.56-61.59-82.42a8.88 8.88 0 0 1-3.2-3.2l-8.8-9.6a45.89 45.89 0 0 0-7.2-7.2 28.39 28.39 0 0 0-10.4-5.61 43.26 43.26 0 0 0-12-1.61h-124a27.52 27.52 0 0 0-19.61 8 25.62 25.62 0 0 0-8.4 19.2v276a26.13 26.13 0 0 0 8 19.2 27.26 27.26 0 0 0 20 8 94.75 94.75 0 0 1 16.79-42.39 99.31 99.31 0 0 1 34.41-30.41 93 93 0 0 1 44.8-11.21q36.81 0 64.41 24t32.41 60h28a27.36 27.36 0 0 0 27.21-27.21V528a55.47 55.47 0 0 0-1.19-10.8zM774.1 528V418.41h67.2a8.61 8.61 0 0 1 4.81 1.61 26.42 26.42 0 0 1 4 3.2l1.61 1.61 58.4 80a57 57 0 0 1 4 6q1.59 2.79 3.2 6a34.28 34.28 0 0 1 2.41 6 19.14 19.14 0 0 1 0.79 5.2z m96.36 147.53a60.55 60.55 0 0 0-23.19-23.2 64.53 64.53 0 0 0-32.41-8.4q-26.4 0-44.8 18.41t-18.41 44.8a69.67 69.67 0 0 0 1.61 15.21 52 52 0 0 0 4.81 13.21 79.06 79.06 0 0 0 7.61 11.6 59 59 0 0 0 10 10 78.81 78.81 0 0 0 11.6 7.6 51.9 51.9 0 0 0 13.21 4.82 66 66 0 0 0 14.41 1.61q26.42 0 45.21-18.79t18.79-45.21v-0.07a63 63 0 0 0-8.44-31.59z" p-id="6919"></path></svg>