<?xml version="1.0" standalone="no"?><!DOCTYPE svg PUBLIC "-//W3C//DTD SVG 1.1//EN" "http://www.w3.org/Graphics/SVG/1.1/DTD/svg11.dtd"><svg t="1556955959166" class="icon" style="" viewBox="0 0 1024 1024" version="1.1" xmlns="http://www.w3.org/2000/svg" p-id="1848" xmlns:xlink="http://www.w3.org/1999/xlink" width="200" height="200"><defs><style type="text/css"></style></defs><path d="M943.525154 166.971849C908.454404 180.217525 678.894078 299.815413 467.437062 522.295484 255.958556 744.791927 102.901625 1013.507018 76.383668 1021.079484c-26.500561 7.572466-58.741869 1.454118-39.216163-33.965579 2.506077-4.542456 7.648191-13.406335 14.772448-25.482371-20.572548 11.338233-46.505173 12.586666-36.260855-20.263509C26.200732 907.60506 125.293611 626.215298 159.042249 551.308261c-12.071943-41.311895 2.526543-59.07035 30.80868-110.682845 28.14706-51.377134 43.930535-77.607542 67.584258-90.146113 23.588231-12.512988 55.220672-23.782659 75.615165-59.655681C353.36605 255.07442 569.18235 22.395056 611.04069 0c0 0 22.391986 0.26913 35.57217 19.617803 13.168927 19.361977-11.907191 60.023048-36.795021 76.707033-24.959461 16.747429-184.995341 153.819295-317.41935 373.229446-106.116853 175.822424-179.689499 370.178971-216.541825 451.915553 60.643172-101.157911 172.613336-283.883559 215.383442-342.399277-4.548596-51.934836 16.644075-68.463278 61.865-120.885208 45.212738-52.444443 70.070892-78.896908 101.065813-86.944188 31.004131-8.043187 71.393004-12.317537 104.392582-49.16884 33.010835-36.849256 353.412099-256.56947 410.918837-272.192286 0 0 27.754111 6.598278 39.20593 33.965579C1020.159532 111.208824 978.587718 153.732313 943.525154 166.971849z" p-id="1849"></path></svg>