<?xml version="1.0" standalone="no"?><!DOCTYPE svg PUBLIC "-//W3C//DTD SVG 1.1//EN" "http://www.w3.org/Graphics/SVG/1.1/DTD/svg11.dtd"><svg t="1557301019589" class="icon" style="" viewBox="0 0 1769 1024" version="1.1" xmlns="http://www.w3.org/2000/svg" p-id="1173" xmlns:xlink="http://www.w3.org/1999/xlink" width="52" height="52"><defs><style type="text/css"></style></defs><path d="M654.320093 435.198705A76.801295 76.801295 0 1 0 731.121388 512a76.801295 76.801295 0 0 0-76.801295-76.801295zM884.723979 0c-282.774882 0-512 229.276932-512 512S601.949097 1024 884.723979 1024s512-229.276932 512-512S1167.498862 0 884.723979 0z m0 896.006477c-212.074685 0-384.006477-171.918838-384.006477-384.006477S672.649294 127.993523 884.723979 127.993523 1268.730456 299.925315 1268.730456 512 1096.798664 896.006477 884.723979 896.006477z m0-460.807772A76.801295 76.801295 0 1 0 961.525275 512 76.801295 76.801295 0 0 0 884.723979 435.198705z m230.403886 0A76.801295 76.801295 0 1 0 1191.929161 512a76.801295 76.801295 0 0 0-76.801296-76.801295z" fill="" p-id="1174"></path></svg>