<?xml version="1.0" standalone="no"?><!DOCTYPE svg PUBLIC "-//W3C//DTD SVG 1.1//EN" "http://www.w3.org/Graphics/SVG/1.1/DTD/svg11.dtd"><svg t="1555300313359" class="icon" style="" viewBox="0 0 1024 1024" version="1.1" xmlns="http://www.w3.org/2000/svg" p-id="1977" xmlns:xlink="http://www.w3.org/1999/xlink" width="200" height="200"><defs><style type="text/css"></style></defs><path d="M812.988 384L635.146 152.47A63.813 63.813 0 0 0 640 128c0-35.346-28.652-64-64-64-35.346 0-64 28.654-64 64s28.654 64 64 64c2.842 0 5.632-0.204 8.376-0.564L732.288 384H291.714l147.912-192.564A64.26 64.26 0 0 0 448 192c35.346 0 64-28.654 64-64s-28.654-64-64-64-64 28.654-64 64c0 8.668 1.732 16.93 4.854 24.468L211.012 384H0v128h64l64 512h768l64-512h64V384H812.988zM320 896H192V768h128v128z m0-256H192V512h128v128z m256 256H448V768h128v128z m0-256H448V512h128v128z m256 256H704V768h128v128z m0-256H704V512h128v128z" p-id="1978"></path></svg>