<?xml version="1.0" standalone="no"?><!DOCTYPE svg PUBLIC "-//W3C//DTD SVG 1.1//EN" "http://www.w3.org/Graphics/SVG/1.1/DTD/svg11.dtd"><svg t="1559039704941" class="icon" style="" viewBox="0 0 1024 1024" version="1.1" xmlns="http://www.w3.org/2000/svg" p-id="4957" xmlns:xlink="http://www.w3.org/1999/xlink" width="200" height="200"><defs><style type="text/css"></style></defs><path d="M1022.634667 546.474667c-2.389333-54.954667-16.384-111.274667-40.277334-162.816-44.373333-94.208-119.125333-167.253333-196.949333-192.512-9.216-17.066667-20.138667-33.109333-32.426667-48.469334C720.213333 103.082667 684.032 81.92 647.850667 81.92c-2.048 0-4.096 0-6.485334 0.341333-40.277333 2.730667-64.853333 21.162667-84.650666 36.181334-18.090667 13.312-29.013333 20.821333-45.397334 20.821333-16.384 0-27.306667-7.509333-45.056-21.162667-19.797333-15.018667-44.714667-33.450667-84.650666-36.181333-2.048 0-4.096-0.341333-6.485334-0.341333-36.181333 0-72.362667 21.162667-105.130666 61.098666-12.288 15.018667-23.210667 31.402667-32.426667 48.469334-78.165333 25.258667-152.917333 97.962667-196.949333 192.512C16.384 435.2 2.389333 491.52 0.341333 546.474667c-2.389333 61.44 8.874667 121.173333 34.474667 176.469333 21.162667 46.421333 54.954667 86.357333 100.010667 118.442667 37.546667 26.624 82.944 48.128 135.509333 63.829333 89.088 26.624 180.565333 32.426667 241.322667 32.426667 60.757333 0 152.234667-5.461333 241.322666-32.426667 52.565333-15.701333 98.304-37.205333 135.509334-63.829333 45.056-32.085333 78.848-72.021333 100.010666-118.442667 25.258667-55.637333 36.864-115.029333 34.133334-176.469333z m-74.752 158.037333c-77.482667 169.984-331.093333 188.416-436.224 188.416-58.026667 0-144.384-5.461333-228.352-30.378667-104.448-31.402667-174.08-84.309333-207.872-158.037333-22.528-49.152-32.426667-101.717333-30.378667-156.330667 2.048-49.152 14.677333-99.328 36.181333-145.408 20.138667-42.666667 47.445333-81.578667 79.530667-111.957333 31.061333-29.696 65.194667-50.176 98.645333-59.392 6.144-1.706667 11.605333-6.144 14.336-11.946667 11.946667-25.941333 54.613333-93.184 101.376-93.184h3.413334c26.965333 1.706667 43.690667 14.336 61.098666 27.306667 18.773333 13.994667 39.936 29.696 71.68 29.696s53.248-15.701333 72.021334-29.696c17.408-12.970667 34.133333-25.6 61.098666-27.306667h3.413334c46.762667 0 89.429333 67.242667 102.058666 93.184 2.730667 5.802667 7.850667 10.24 14.336 11.946667 33.450667 9.216 67.584 29.696 98.645334 59.392 31.744 30.378667 59.392 68.949333 79.530666 111.957333 21.504 46.08 34.133333 96.597333 36.181334 145.408 1.706667 54.613333-8.533333 107.178667-30.72 156.330667z m0 0" p-id="4958"></path><path d="M423.594667 257.706667c-2.389333-5.461333-6.485333-9.898667-12.288-11.946667-5.461333-2.389333-11.605333-2.048-17.066667 0-5.12 2.048-126.293333 54.272-207.189333 173.397333-6.826667 10.24-4.096 24.234667 5.802666 31.061334 3.754667 2.730667 8.192 3.754667 12.629334 3.754666 7.168 0 13.994667-3.413333 18.432-9.898666 73.045333-107.861333 186.368-156.672 187.733333-157.354667 11.264-4.778667 16.725333-17.749333 11.946667-29.013333z m205.141333-11.946667c-11.264-4.778667-24.576 0.682667-29.354667 11.946667-4.778667 11.264 0.682667 24.576 11.946667 29.354666 1.024 0.682667 114.005333 49.152 187.733333 157.354667 6.826667 10.24 20.821333 12.970667 31.061334 5.802667 10.24-6.826667 12.970667-20.821333 5.802666-31.061334-80.896-119.125333-202.069333-171.349333-207.189333-173.397333zM481.28 262.826667c-11.264-5.12-24.234667-0.341333-29.696 10.581333-5.802667 12.629333-58.368 124.928-60.757333 168.96-0.682667 12.288 8.874667 22.869333 21.162666 23.552h1.024c11.946667 0 21.504-9.216 22.186667-21.162667 1.365333-26.624 35.498667-107.52 56.32-152.234666 5.461333-11.264 0.682667-24.576-10.24-29.696z m90.112 10.581333c-5.461333-10.581333-18.432-15.36-29.354667-10.24-10.922667 5.12-15.701333 18.090667-10.922666 29.013333 21.162667 44.714667 54.954667 125.952 56.32 152.234667 0.682667 11.946667 10.581333 21.162667 22.186666 21.162667h1.024c5.802667-0.341333 11.605333-3.072 15.36-7.509334 4.096-4.437333 6.144-10.24 5.461334-16.042666-1.706667-43.349333-53.930667-155.989333-60.074667-168.618667z m0 0" p-id="4959"></path></svg>