<?xml version="1.0" standalone="no"?><!DOCTYPE svg PUBLIC "-//W3C//DTD SVG 1.1//EN" "http://www.w3.org/Graphics/SVG/1.1/DTD/svg11.dtd"><svg t="1557806841312" class="icon" style="" viewBox="0 0 1024 1024" version="1.1" xmlns="http://www.w3.org/2000/svg" p-id="1997" xmlns:xlink="http://www.w3.org/1999/xlink" width="200" height="200"><defs><style type="text/css"></style></defs><path d="M814 41.6c-6.1 0-12.3 2.3-17 7l-22.6 22.6c-9.4 9.4-9.4 24.6 0 33.9 4.7 4.7 10.8 7 17 7 6.1 0 12.3-2.3 17-7L831 82.6c9.4-9.4 9.4-24.6 0-33.9-4.7-4.8-10.9-7.1-17-7.1z" fill="" p-id="1998"></path><path d="M675.4 54.3c-7.9-7.9-18.1-11.7-28.2-11.7-14.1 0-28 7.4-35.4 21.2L508.5 257.9 61.6 704.8c-31.2 31.2-31.2 81.9 0 113.1L203 959.4c15.6 15.6 36.1 23.4 56.6 23.4s40.9-7.8 56.6-23.4l446.9-446.9 194.1-103.3c23.7-12.6 28.5-44.6 9.5-63.6L675.4 54.3zM282.2 925.4c-6 6-14.1 9.4-22.6 9.4s-16.6-3.3-22.6-9.4L95.6 784c-12.5-12.5-12.5-32.8 0-45.3l446.9-446.9 186.7 186.7-447 446.9z m489.7-472L567.6 249.1l81.5-153.2 276 276-153.2 81.5z" fill="#333333" p-id="1999"></path><path d="M487.3 473.7c-15.4 0-30.7 5.9-42.4 17.6-23.4 23.4-23.4 61.4 0 84.9 11.7 11.7 27.1 17.6 42.4 17.6s30.7-5.9 42.4-17.6c23.4-23.4 23.4-61.4 0-84.9-11.7-11.7-27-17.6-42.4-17.6z m8.5 68.5c-2.9 2.9-6.2 3.5-8.5 3.5s-5.6-0.6-8.5-3.5c-2.9-2.9-3.5-6.2-3.5-8.5s0.6-5.6 3.5-8.5c2.9-2.9 6.2-3.5 8.5-3.5s5.6 0.6 8.5 3.5c2.9 2.9 3.5 6.2 3.5 8.5s-0.6 5.6-3.5 8.5zM862.1 182.9c6.1 0 12.3-2.3 17-7l22.6-22.6c9.4-9.4 9.4-24.6 0-33.9-4.7-4.7-10.8-7-17-7-6.1 0-12.3 2.3-17 7L845.1 142c-9.4 9.4-9.4 24.6 0 33.9 4.7 4.7 10.8 7 17 7zM932.8 253.6c6.1 0 12.3-2.3 17-7l22.6-22.6c9.4-9.4 9.4-24.6 0-33.9-4.7-4.7-10.8-7-17-7-6.1 0-12.3 2.3-17 7l-22.6 22.6c-9.4 9.4-9.4 24.6 0 33.9 4.7 4.7 10.8 7 17 7z" fill="#333333" p-id="2000"></path></svg>