<?xml version="1.0" standalone="no"?><!DOCTYPE svg PUBLIC "-//W3C//DTD SVG 1.1//EN" "http://www.w3.org/Graphics/SVG/1.1/DTD/svg11.dtd"><svg t="1545290863406" class="icon" style="" viewBox="0 0 1114 1024" version="1.1" xmlns="http://www.w3.org/2000/svg" p-id="1109" xmlns:xlink="http://www.w3.org/1999/xlink" width="46" height="46"><defs><style type="text/css"></style></defs><path d="M58.446512 547.564792l382.478845-72.887597 9.434982 49.483804L67.881494 597.059091zM64.753992 969.94553l376.28681-69.529205 9.151618 49.536279L73.916104 1019.481809zM65.100326 864.187673l376.339285-66.223288 8.731819 49.620239-376.34978 66.223288zM64.680527 751.00987l376.318295-72.131959 9.487457 49.483804-376.32879 72.121464zM64.229243 647.277543l376.28681-77.652315 10.180126 49.336874-376.297306 77.662811zM695.6069 1023.994648A583.310675 583.310675 0 0 1 609.75801 1018.012512l-12.38407-1.889095-6.926683-10.494975a505.752814 505.752814 0 0 1-80.916252-278.851468 506.802311 506.802311 0 0 1 69.896529-261.639711l6.716784-11.124673 12.803868-2.728693a582.261177 582.261177 0 0 1 96.658714-7.97618c227.740943 0 412.977241 130.242632 412.977241 290.29099S923.557743 1023.994648 695.6069 1023.994648z m-64.963891-60.556002a535.243692 535.243692 0 0 0 64.963891 3.98809c196.57087 0 356.829128-104.949744 356.829128-233.618129S892.07282 500.085528 695.6069 500.085528a523.80417 523.80417 0 0 0-74.304418 5.142537 454.01259 454.01259 0 0 0-55.308515 221.23406 452.018545 452.018545 0 0 0 64.649042 236.976521z" fill="" p-id="1110"></path><path d="M695.6069 1023.994648A583.310675 583.310675 0 0 1 609.75801 1018.012512l-12.38407-1.889095-6.926683-10.494975a505.752814 505.752814 0 0 1-80.916252-278.851468 506.802311 506.802311 0 0 1 69.896529-261.639711l6.716784-11.124673 12.803868-2.728693a582.261177 582.261177 0 0 1 96.658714-7.97618c227.740943 0 412.977241 130.242632 412.977241 290.29099S923.557743 1023.994648 695.6069 1023.994648z m-64.963891-60.556002a535.243692 535.243692 0 0 0 64.963891 3.98809c196.57087 0 356.829128-104.949744 356.829128-233.618129S892.07282 500.085528 695.6069 500.085528a523.80417 523.80417 0 0 0-74.304418 5.142537 454.01259 454.01259 0 0 0-55.308515 221.23406 452.018545 452.018545 0 0 0 64.649042 236.976521zM0 8.500929A261.639711 261.639711 0 0 1 39.041305 5.877186a81.545951 81.545951 0 0 1 52.474871 13.643466 56.253063 56.253063 0 0 1 21.619648 48.066983 64.649042 64.649042 0 0 1-20.989949 51.635274 91.306277 91.306277 0 0 1-58.876806 16.477109A251.879384 251.879384 0 0 1 0 133.810923z m28.966129 104.110146a47.752133 47.752133 0 0 0 10.494975 0.629698c26.132486 0 43.134345-14.273165 43.134344-44.70859A36.62746 36.62746 0 0 0 41.979897 28.021582a55.308515 55.308515 0 0 0-13.013768 1.154447zM161.307756 16.057311a14.483065 14.483065 0 0 1-15.532562 14.378115 14.168215 14.168215 0 0 1-15.007814-14.378115A14.168215 14.168215 0 0 1 145.985093 1.469296a14.483065 14.483065 0 0 1 15.322663 14.588015z m-29.700778 118.38331V41.979897h28.75623v92.565674zM183.452152 72.835122c0-12.069221 0-22.459245-0.734649-30.960174h24.978039l1.259397 12.803868a35.682913 35.682913 0 0 1 30.855225-14.902863c20.255301 0 38.411606 17.631557 38.411606 47.122435 0 33.688868-20.989949 49.641229-41.979897 49.641228a28.75623 28.75623 0 0 1-24.033492-10.494974v45.967988h-28.756229zM212.208381 94.454769a34.633415 34.633415 0 0 0 0.524749 6.087085 17.526607 17.526607 0 0 0 16.896909 13.643467c12.489019 0 19.835502-10.494974 19.835501-26.132486s-6.611834-26.027536-19.415702-26.027537a18.156306 18.156306 0 0 0-17.316708 14.588015 27.601783 27.601783 0 0 0-0.524749 5.142537zM296.587975 72.835122c0-12.069221 0-22.459245-0.734648-30.960174h24.978039l1.364347 12.803868a35.682913 35.682913 0 0 1 30.855224-14.902863c20.255301 0 38.411606 17.631557 38.411606 47.122435 0 33.688868-20.989949 49.641229-41.979897 49.641228A29.071079 29.071079 0 0 1 325.344205 125.939692v45.967988h-28.75623zM325.344205 94.454769a26.867134 26.867134 0 0 0 0 6.087085 17.421657 17.421657 0 0 0 16.896909 13.643467c12.489019 0 19.835502-10.494974 19.835501-26.132486s-6.611834-26.027536-19.520652-26.027537A18.156306 18.156306 0 0 0 325.344205 76.613313a20.989949 20.989949 0 0 0 0 5.142537zM432.602843 97.288412c0.944548 11.964271 12.593969 17.631557 26.132486 17.631557a83.015247 83.015247 0 0 0 25.502788-3.778191l3.77819 19.520653a91.306277 91.306277 0 0 1-33.478968 5.667286c-31.484923 0-49.431329-18.156306-49.431329-47.122435a46.387787 46.387787 0 0 1 46.807586-49.431329C481.824273 39.775953 493.263795 62.969846 493.263795 85.95384a75.983614 75.983614 0 0 1-0.944548 11.334572z m33.793817-19.625602a16.687009 16.687009 0 0 0-16.26721-18.786004A18.890954 18.890954 0 0 0 432.392943 77.66281zM600.102633 0v106.733889c0 10.494974 0 20.989949 0.734649 27.706732h-25.502788l-1.364347-13.643466a32.324521 32.324521 0 0 1-29.385928 15.637512c-21.934496 0-39.566053-18.786004-39.566053-47.542234 0-31.484923 19.310753-49.22143 41.979897-49.22143a28.231481 28.231481 0 0 1 24.45329 10.494974V0z m-28.756229 81.021202a44.288792 44.288792 0 0 0 0-5.142537 17.211758 17.211758 0 0 0-16.791959-14.168216c-13.118718 0-19.940451 11.754371-19.940451 26.342386s7.766281 25.502788 19.730551 25.502787a17.001858 17.001858 0 0 0 16.68701-13.748416 26.867134 26.867134 0 0 0 0.734648-6.716783zM661.183384 134.440621c0-6.087085 0.734648-17.211758 0.734648-27.706732V0h28.75623v52.474872a32.74432 32.74432 0 0 1 28.021582-13.013768c22.144396 0 38.411606 18.366205 38.201706 46.702635 0 33.374018-20.989949 50.061028-41.979897 50.061028a30.750275 30.750275 0 0 1-27.811682-15.007813l-1.154447 12.908818z m29.490878-39.356153a18.366205 18.366205 0 0 0 0.629699 5.037587 17.421657 17.421657 0 0 0 16.791959 13.643467c12.38407 0 19.940451-9.445477 19.940451-26.132486 0-14.378115-6.401934-25.712687-19.940451-25.712687a17.736507 17.736507 0 0 0-16.791959 14.168215 22.039446 22.039446 0 0 0-0.629699 5.352437zM797.618051 97.288412c0.944548 11.964271 12.698919 17.631557 26.132486 17.631557a83.225147 83.225147 0 0 0 25.607737-3.778191l3.778191 19.520653a91.306277 91.306277 0 0 1-33.478968 5.667286c-31.484923 0-49.431329-18.156306-49.431329-47.122435a46.387787 46.387787 0 0 1 46.702636-49.431329c29.910677 0 41.350199 23.298843 41.350199 46.177887a75.983614 75.983614 0 0 1-0.944548 11.334572z m33.583918-19.625602a16.791959 16.791959 0 0 0-16.267211-18.786004A18.890954 18.890954 0 0 0 797.618051 77.66281zM927.755733 134.440621l-1.679196-9.340527A33.269069 33.269069 0 0 1 898.999503 136.434667a28.336431 28.336431 0 0 1-29.910677-28.441381c0-24.033491 21.619647-35.473013 54.468917-35.263114V71.365826c0-4.932638-2.728693-11.964271-16.896909-11.964271a51.740224 51.740224 0 0 0-25.082988 7.031633l-5.352437-18.576105a76.718263 76.718263 0 0 1 35.997762-8.08113c30.855225 0 40.7205 18.156306 40.7205 39.880902v32.219572a145.565294 145.565294 0 0 0 1.259397 22.564194z m-3.358392-43.764043c-15.217713 0-26.867134 3.463342-26.867134 14.588015a10.494974 10.494974 0 0 0 11.334572 11.019723 15.847411 15.847411 0 0 0 14.902863-10.494975 19.310753 19.310753 0 0 0 0.629699-4.932637zM975.088067 71.365826c0-11.544472 0-20.989949-0.734648-29.490878h24.243391l1.259397 12.489019h0.629698A32.009672 32.009672 0 0 1 1028.507487 39.775953a26.342386 26.342386 0 0 1 25.397837 15.742461 40.195752 40.195752 0 0 1 11.964271-11.229622 33.374018 33.374018 0 0 1 17.631557-4.512839c17.736507 0 31.484923 12.489019 31.484923 40.090802v54.573866h-28.021581V83.959795c0-13.433567-4.302939-20.989949-13.643467-20.989949a14.063266 14.063266 0 0 0-13.223668 10.494974 25.187938 25.187938 0 0 0-1.154447 7.451432v54.154068h-28.021581V82.490498C1030.921331 70.841077 1026.828291 62.969846 1018.012512 62.969846a14.692964 14.692964 0 0 0-13.433567 10.494974 19.415703 19.415703 0 0 0-1.154447 7.241533v53.944168h-28.336431zM141.892053 222.178607h27.286934v50.061028a33.059169 33.059169 0 0 1 10.494974-8.920728 29.805727 29.805727 0 0 1 14.168215-3.463342c17.316708 0 30.645325 12.069221 30.645325 38.411606v51.215475h-27.286933v-48.171932c0-11.544472-3.883141-19.415703-14.168215-19.415703a14.378115 14.378115 0 0 0-13.538517 9.550427 16.791959 16.791959 0 0 0-0.944548 6.087085v51.950123h-27.286933zM267.936695 314.849231c0.944548 11.334572 11.964271 16.687009 24.76814 16.687009a77.87271 77.87271 0 0 0 24.138441-3.568291l3.568291 18.366205a86.478589 86.478589 0 0 1-31.484923 5.352437c-29.700777 0-46.807586-17.211758-46.807586-44.603641a43.973943 43.973943 0 0 1 44.288792-46.807586c28.336431 0 39.041305 22.039446 39.041305 43.764043a71.680675 71.680675 0 0 1-0.839598 10.494974z m32.114622-18.576105a15.847411 15.847411 0 0 0-15.427613-17.736507 17.946406 17.946406 0 0 0-16.896908 17.736507zM391.462543 349.482646l-1.679196-8.815779a31.484923 31.484923 0 0 1-25.082988 10.494975A26.867134 26.867134 0 0 1 335.839179 324.609557c0-22.774094 20.989949-33.688868 51.425375-33.583918v-1.259397c0-4.617789-2.518794-11.229623-15.952361-11.229623a49.11648 49.11648 0 0 0-24.138441 6.611834l-5.037588-17.526607a71.260876 71.260876 0 0 1 34.003717-7.766281c29.280978 0 38.621506 17.211758 38.621505 37.781908v30.540375a129.822833 129.822833 0 0 0 1.259397 20.989949z m-3.148492-41.350199c-14.378115 0-25.502788 3.148492-25.502788 13.748416a9.760326 9.760326 0 0 0 10.494975 10.494975 14.902864 14.902864 0 0 0 14.168215-10.494975 20.989949 20.989949 0 0 0 0.524749-4.617788zM521.180426 222.178607v101.171553c0 9.865276 0 20.255301 0.734649 26.132486h-24.243391l-1.259397-12.908819a30.645325 30.645325 0 0 1-27.391883 14.902864c-20.989949 0-37.467058-17.736507-37.467059-45.02344 0-29.595828 18.261255-46.597686 39.251204-46.597686a26.762185 26.762185 0 0 1 23.088944 9.865276v-47.542234z m-27.286933 76.718263A38.516556 38.516556 0 0 0 493.263795 293.859282a16.37216 16.37216 0 0 0-15.952361-13.433567c-12.38407 0-18.786004 11.124673-18.786005 24.978039s7.346482 24.138441 18.576105 24.138441A16.057311 16.057311 0 0 0 493.263795 316.633376a22.983994 22.983994 0 0 0 0.629698-6.192035zM543.009973 222.178607h27.286933V349.482646h-27.286933zM620.462884 237.50127a13.643467 13.643467 0 0 1-14.692964 13.538517 13.748416 13.748416 0 1 1 0-27.391884 13.748416 13.748416 0 0 1 14.692964 13.853367zM592.336352 349.482646V262.374359H619.203487v87.108287zM725.097778 262.374359c0 5.562336-0.629698 12.908818-0.629698 26.027536v48.906581a50.165977 50.165977 0 0 1-13.328618 39.356154 53.839218 53.839218 0 0 1-35.682913 10.494974 67.692585 67.692585 0 0 1-31.484923-6.821733l5.352437-20.989949a54.783766 54.783766 0 0 0 25.397838 6.611834 20.989949 20.989949 0 0 0 22.774094-23.088944v-5.772236a28.021582 28.021582 0 0 1-23.613692 11.439522c-21.724597 0-37.152209-17.526607-37.152209-42.819495 0-28.126531 18.261255-46.072937 39.775953-46.072938a26.447335 26.447335 0 0 1 24.033491 12.38407l0.944548-10.494974z m-27.916632 35.682913a24.768139 24.768139 0 0 0-0.524748-5.037588A14.902864 14.902864 0 0 0 682.173333 280.530664c-9.865276 0-17.946406 8.920728-17.946406 24.87309 0 13.118718 6.401934 23.298843 17.946406 23.298843a14.797914 14.797914 0 0 0 14.273165-11.124673 22.564195 22.564195 0 0 0 0.944548-7.136583zM746.297626 222.178607h27.181984v50.061028a31.484923 31.484923 0 0 1 10.494974-8.920728 30.120576 30.120576 0 0 1 14.168215-3.463342c17.421657 0 30.645325 12.069221 30.645326 38.411606v51.215475h-26.552286v-48.171932c0-11.544472-3.98809-19.415703-14.168215-19.415703a14.483065 14.483065 0 0 0-13.643467 9.550427 16.791959 16.791959 0 0 0-0.944547 6.087085v51.950123h-27.181984zM880.738248 236.766621V262.374359h19.520652v20.045401h-19.520652v31.484923c0 10.494974 2.518794 15.427612 10.494974 15.427612a39.251204 39.251204 0 0 0 8.08113-0.734648v20.989949a53.10457 53.10457 0 0 1-17.736506 2.308894 28.231481 28.231481 0 0 1-20.989949-7.556381 35.892812 35.892812 0 0 1-7.556382-25.922587v-36.522511h-10.704873V262.374359h11.649421v-19.520652zM915.791462 325.344205a53.419419 53.419419 0 0 0 23.508743 6.611834c8.29103 0 11.649422-2.833643 11.649421-7.346482s-2.728693-6.611834-12.908818-10.494975c-18.051356-5.352437-24.978039-15.217713-24.978039-25.607737 0-16.26721 13.958316-28.65128 35.682912-28.65128a57.827309 57.827309 0 0 1 24.66319 5.037588L968.686133 283.364308a43.344244 43.344244 0 0 0-18.995904-5.037588c-6.611834 0-10.494974 2.728693-10.494974 7.241532s3.358392 6.296985 14.168215 10.494974c16.687009 5.772236 23.613692 14.168215 23.823592 27.077034 0 16.37216-12.908818 28.336431-37.991807 28.336431a62.340148 62.340148 0 0 1-28.336431-6.087085z" fill="" p-id="1111"></path></svg>