<?xml version="1.0" standalone="no"?>
<!DOCTYPE svg PUBLIC "-//W3C//DTD SVG 1.1//EN" "http://www.w3.org/Graphics/SVG/1.1/DTD/svg11.dtd">
<svg t="1545290976042" class="icon" style="" viewBox="0 0 1024 1024" version="1.1" xmlns="http://www.w3.org/2000/svg" p-id="1932" xmlns:xlink="http://www.w3.org/1999/xlink" width="46" height="46"><defs><style type="text/css"></style></defs><path d="M512 0C230.4 0 0 230.4 0 512s230.4 512 512 512 512-230.4 512-512S793.6 0 512 0z m0 916.48c-220.16 0-404.48-179.2-404.48-404.48S291.84 107.52 512 107.52s404.48 179.2 404.48 404.48-184.32 404.48-404.48 404.48z" fill="" p-id="1933"></path><path d="M512 153.6c-194.56 0-358.4 158.72-358.4 358.4s158.72 358.4 358.4 358.4 358.4-158.72 358.4-358.4-163.84-358.4-358.4-358.4z m261.12 471.04s0-5.12 0 0l-128-87.04V512v-25.6l128-87.04c15.36 35.84 20.48 71.68 20.48 112.64 0 40.96-5.12 76.8-20.48 112.64z m-35.84-281.6L599.04 409.6c-10.24-10.24-25.6-15.36-40.96-25.6l-10.24-153.6c76.8 10.24 143.36 51.2 189.44 112.64zM512 573.44c-35.84 0-61.44-30.72-61.44-61.44s25.6-61.44 61.44-61.44 61.44 30.72 61.44 61.44-25.6 61.44-61.44 61.44z m-35.84-343.04l-10.24 153.6c-15.36 10.24-25.6 15.36-40.96 30.72L286.72 343.04c46.08-61.44 112.64-102.4 189.44-112.64zM250.88 404.48l133.12 87.04v51.2L256 624.64c-15.36-35.84-20.48-71.68-20.48-107.52-5.12-40.96 0-81.92 15.36-112.64z m35.84 276.48L424.96 614.4c10.24 10.24 25.6 20.48 40.96 25.6l10.24 153.6c-76.8-10.24-143.36-51.2-189.44-112.64z m261.12 112.64s0-5.12 0 0l10.24-153.6c15.36-5.12 25.6-15.36 40.96-25.6l138.24 71.68c-46.08 56.32-112.64 97.28-189.44 107.52z" fill="" p-id="1934"></path></svg>